<svg width="280" height="280" viewBox="0 0 280 280" fill="none" xmlns="http://www.w3.org/2000/svg">
<path d="M93.0648 131.542C93.0648 131.542 94.445 110.458 86.5596 93.5156L136.606 93.5833C141.685 134.245 124.112 164.099 89.7158 185.917C130.95 167.859 150.112 135.286 143.898 86.0312H74.346L81.2419 98.0469H57.4033C57.4033 98.0469 78.8773 118.146 84.195 129.969C84.195 129.969 82.0283 115.781 74.1481 106.917H85.5752C85.5752 106.911 91.6846 120.307 93.0648 131.542Z" fill="#E11D48"/>
<path d="M113.388 110.38H112.7C112.226 110.38 111.841 110.432 111.534 110.531C111.232 110.635 111.002 110.76 110.851 110.911C110.664 111.099 110.544 111.349 110.487 111.661C110.424 111.974 110.393 112.26 110.393 112.51C110.393 112.833 110.44 113.099 110.534 113.312C110.627 113.521 110.742 113.698 110.877 113.833C111.013 113.969 111.159 114.068 111.31 114.135C111.461 114.203 111.596 114.255 111.716 114.292L113.388 114.823V110.38Z" fill="#E11D48"/>
<path d="M116.992 122.724C117.398 122.667 117.711 122.547 117.929 122.359C118.08 122.224 118.205 122.036 118.31 121.786C118.409 121.542 118.461 121.24 118.461 120.885C118.461 120.396 118.346 119.932 118.107 119.505C117.867 119.073 117.377 118.74 116.633 118.505L115.367 118.094V122.813H115.976C116.247 122.813 116.586 122.786 116.992 122.724Z" fill="#E11D48"/>
<path d="M129.117 116.568C129.117 108.406 122.502 101.786 114.341 101.786C106.18 101.786 99.5649 108.406 99.5649 116.568C99.5649 124.724 106.18 131.344 114.341 131.344C122.502 131.344 129.117 124.724 129.117 116.568ZM107.601 125.479V122.812H113.388V117.463L109.987 116.37C109.513 116.219 109.07 116.036 108.669 115.823C108.263 115.615 107.888 115.229 107.549 114.672C107.278 114.213 107.112 113.745 107.044 113.26C106.976 112.781 106.94 112.338 106.94 111.927C106.94 111.406 106.987 110.875 107.081 110.344C107.174 109.807 107.403 109.333 107.778 108.906C108.018 108.635 108.284 108.422 108.575 108.26C108.872 108.104 109.18 107.979 109.492 107.906C109.805 107.833 110.117 107.781 110.43 107.755C110.742 107.729 111.044 107.713 111.331 107.713H113.383V105.99H115.362V107.713H120.794V110.38H115.362V115.458L118.357 116.422C118.815 116.573 119.284 116.75 119.768 116.953C120.247 117.156 120.7 117.536 121.122 118.094C121.497 118.588 121.721 119.073 121.794 119.557C121.872 120.036 121.909 120.568 121.909 121.141C121.909 121.463 121.903 121.786 121.883 122.104C121.867 122.427 121.815 122.74 121.732 123.042C121.648 123.344 121.523 123.641 121.367 123.917C121.206 124.198 120.982 124.448 120.695 124.667C120.44 124.87 120.159 125.026 119.857 125.135C119.549 125.245 119.237 125.328 118.919 125.375C118.596 125.427 118.273 125.458 117.956 125.469C117.633 125.474 117.331 125.479 117.039 125.479H115.367V127.203H113.388V125.479H107.601Z" fill="#E11D48"/>
<path d="M126.325 41L128.773 61.349L96.419 47.5885C96.5909 47.9844 103.664 64.0208 108.893 80.5469H116.33C115.971 76.7969 115.273 72.9635 114.044 69.3281L129.554 75.9271C129.554 75.9271 129.601 77.6771 129.565 80.5469H136.586C137.992 73.4844 138.862 65.8594 138.601 58.2448L206.492 87.224C191.867 138.901 157.987 168.745 109.232 181.729C102.966 183.401 96.4607 184.797 89.7107 185.911C94.3565 185.859 98.8982 185.646 103.33 185.266C162.216 180.276 202.216 146.875 220.732 81.151L126.325 41Z" fill="#E11D48"/>
<path d="M164.382 96.3124C163.737 96.0364 163.179 95.8854 162.705 95.8437C162.237 95.8072 161.856 95.8489 161.56 95.9687C161.195 96.1145 160.888 96.3854 160.632 96.776C160.367 97.1666 160.169 97.5364 160.018 97.8802C159.836 98.3177 159.747 98.7083 159.747 99.052C159.752 99.3906 159.81 99.6927 159.914 99.9583C160.018 100.213 160.159 100.443 160.325 100.62C160.492 100.797 160.648 100.948 160.789 101.062L162.757 102.755L165.315 96.7083L164.382 96.3124Z" fill="#E11D48"/>
<path d="M161.674 115.141C162.039 115.292 162.513 115.448 163.096 115.604C163.685 115.755 164.179 115.771 164.586 115.641C164.872 115.547 165.153 115.359 165.429 115.083C165.711 114.807 165.95 114.432 166.153 113.943C166.44 113.276 166.544 112.583 166.466 111.854C166.393 111.135 165.919 110.391 165.044 109.641L163.56 108.354L160.836 114.781L161.674 115.141Z" fill="#E11D48"/>
<path d="M150.028 114.463C149.778 117.167 149.435 119.807 148.992 122.391C150.622 123.771 152.476 124.927 154.544 125.807C165.622 130.516 178.409 125.328 183.107 114.213C187.794 103.094 182.627 90.2655 171.549 85.552C164.023 82.3541 155.711 83.7291 149.685 88.4166C150.508 96.0728 150.721 103.375 150.33 110.318L158.153 113.641L161.237 106.349L157.247 102.901C156.69 102.417 156.195 101.917 155.768 101.396C155.341 100.875 155.054 100.13 154.919 99.177C154.815 98.401 154.851 97.6614 155.044 96.9635C155.226 96.2707 155.435 95.6457 155.669 95.0937C155.971 94.3801 156.336 93.6874 156.768 93.0155C157.205 92.3437 157.794 91.828 158.544 91.4687C159.018 91.2343 159.502 91.0937 160.002 91.0468C160.497 90.9999 160.982 91.0103 161.445 91.0885C161.914 91.1666 162.367 91.276 162.804 91.4218C163.252 91.5676 163.664 91.7239 164.054 91.8905L166.841 93.078L167.836 90.7291L170.523 91.8697L169.528 94.2187L176.898 97.3541L175.367 100.984L167.997 97.8489L165.08 104.76L168.586 107.802C169.117 108.271 169.653 108.786 170.195 109.338C170.732 109.896 171.122 110.677 171.377 111.682C171.601 112.562 171.622 113.354 171.455 114.057C171.278 114.76 171.023 115.5 170.69 116.281C170.508 116.719 170.315 117.156 170.101 117.583C169.893 118.01 169.643 118.406 169.357 118.771C169.065 119.135 168.732 119.463 168.357 119.755C167.976 120.036 167.528 120.25 167.008 120.38C166.544 120.51 166.08 120.562 165.601 120.542C165.127 120.51 164.659 120.443 164.195 120.328C163.726 120.208 163.273 120.062 162.836 119.891C162.388 119.713 161.976 119.547 161.586 119.38L159.31 118.417L158.315 120.766L155.633 119.62L156.622 117.271L150.028 114.463Z" fill="#E11D48"/>
<path d="M87.0378 173.986V205.944C87.0378 210.309 85.8346 213.632 83.4336 215.923C81.043 218.204 77.6211 219.34 73.1628 219.34C71.9648 219.34 70.793 219.194 69.6419 218.902C68.4857 218.611 67.5169 218.267 66.7253 217.861C65.9336 217.444 65.2253 217.022 64.6003 216.59C63.9753 216.163 63.5169 215.798 63.2253 215.507L62.7461 215.069L65.9753 206.59C68.1003 208.606 70.0273 209.611 71.7669 209.611C73.3086 209.611 74.543 209.106 75.4753 208.09C76.418 207.064 76.8919 205.486 76.8919 203.361V173.986H87.0378Z" fill="black"/>
<path d="M100.909 190.819V204.006C100.909 206.746 101.326 208.689 102.159 209.84C102.992 210.996 104.393 211.569 106.367 211.569C108.352 211.569 109.753 210.996 110.576 209.84C111.409 208.689 111.826 206.746 111.826 204.006V190.819H121.388V206.319C121.388 210.934 120.185 214.256 117.784 216.298C115.393 218.329 111.586 219.34 106.367 219.34C101.143 219.34 97.3362 218.329 94.9508 216.298C92.5601 214.256 91.3674 210.934 91.3674 206.319V190.819H100.909Z" fill="black"/>
<path d="M126.253 218.527V190.819H135.795V194.819H135.899C135.983 194.684 136.097 194.506 136.253 194.298C136.42 194.079 136.774 193.694 137.316 193.152C137.858 192.611 138.431 192.126 139.045 191.694C139.654 191.267 140.446 190.876 141.42 190.527C142.389 190.184 143.378 190.006 144.378 190.006C145.431 190.006 146.462 190.152 147.462 190.444C148.472 190.736 149.212 191.027 149.67 191.319L150.441 191.736L146.441 199.84C145.243 198.84 143.587 198.34 141.462 198.34C140.321 198.34 139.337 198.59 138.503 199.09C137.67 199.59 137.076 200.204 136.733 200.923C136.399 201.647 136.154 202.256 136.003 202.756C135.863 203.256 135.795 203.652 135.795 203.944V218.527H126.253Z" fill="black"/>
<path d="M154.67 215.236C151.597 212.501 150.066 208.996 150.066 204.715C150.066 200.423 151.659 196.902 154.857 194.152C158.066 191.392 162.029 190.006 166.753 190.006C171.389 190.006 175.3 191.397 178.482 194.173C181.675 196.954 183.274 200.465 183.274 204.715C183.274 208.954 181.712 212.454 178.587 215.215C175.472 217.965 171.529 219.34 166.753 219.34C161.779 219.34 157.753 217.975 154.67 215.236ZM162.066 200.006C160.826 201.23 160.212 202.798 160.212 204.715C160.212 206.621 160.8 208.173 161.982 209.381C163.175 210.579 164.743 211.173 166.691 211.173C168.566 211.173 170.097 210.564 171.295 209.34C172.503 208.121 173.107 206.569 173.107 204.694C173.107 202.793 172.488 201.23 171.253 200.006C170.014 198.788 168.493 198.173 166.691 198.173C164.857 198.173 163.316 198.788 162.066 200.006Z" fill="black"/>
<path d="M213.451 190.819L199.743 211.236H212.368V218.527H183.701L197.409 198.111H185.972V190.819H213.451Z" fill="black"/>
<path d="M17.2917 237.768C17.6094 237.768 17.9219 237.721 18.2292 237.622C18.5313 237.528 18.7552 237.434 18.8958 237.351L19.1042 237.205L20 238.976C19.9687 239.007 19.9271 239.038 19.875 239.08C19.8177 239.111 19.6927 239.179 19.5 239.288C19.3177 239.387 19.1146 239.471 18.8958 239.538C18.6875 239.611 18.4063 239.669 18.0625 239.726C17.7135 239.794 17.3542 239.83 16.9792 239.83C16.1302 239.83 15.3229 239.622 14.5625 239.205C13.7969 238.788 13.1771 238.216 12.7083 237.476C12.2344 236.742 12 235.95 12 235.101C12 234.45 12.1354 233.83 12.4167 233.247C12.6927 232.653 13.0521 232.143 13.5 231.726C13.9583 231.299 14.4896 230.955 15.1042 230.705C15.7135 230.445 16.3385 230.309 16.9792 230.309C17.5729 230.309 18.125 230.387 18.625 230.538C19.125 230.679 19.4792 230.82 19.6875 230.955L20 231.163L19.1042 232.934C19.0469 232.893 18.9635 232.846 18.8542 232.788C18.7552 232.721 18.5469 232.637 18.2292 232.538C17.9219 232.429 17.6094 232.372 17.2917 232.372C16.7917 232.372 16.3385 232.455 15.9375 232.622C15.5313 232.788 15.2135 233.007 14.9792 233.268C14.7552 233.533 14.5833 233.82 14.4583 234.122C14.3333 234.429 14.2708 234.742 14.2708 235.059C14.2708 235.768 14.5313 236.403 15.0625 236.955C15.5885 237.497 16.3333 237.768 17.2917 237.768Z" fill="#E11D48"/>
<path d="M26.7839 235.059C26.7839 233.742 27.2319 232.622 28.1381 231.705C29.0548 230.778 30.1433 230.309 31.4089 230.309C32.7006 230.309 33.7891 230.768 34.6798 231.684C35.5808 232.601 36.0339 233.726 36.0339 235.059C36.0339 236.408 35.586 237.538 34.7006 238.455C33.8256 239.372 32.7266 239.83 31.4089 239.83C30.0756 239.83 28.9714 239.382 28.0964 238.476C27.2214 237.559 26.7839 236.424 26.7839 235.059ZM29.0548 235.059C29.0548 235.549 29.1225 235.992 29.2631 236.393C29.4141 236.783 29.6694 237.117 30.0339 237.393C30.4089 237.674 30.8673 237.809 31.4089 237.809C32.185 237.809 32.7735 237.549 33.1798 237.018C33.5808 236.476 33.7839 235.825 33.7839 235.059C33.7839 234.325 33.5756 233.684 33.1589 233.143C32.7527 232.601 32.1694 232.33 31.4089 232.33C30.6589 232.33 30.0756 232.601 29.6589 233.143C29.2527 233.684 29.0548 234.325 29.0548 235.059Z" fill="#E11D48"/>
<path d="M45.4481 233.976V239.663H43.3647V230.476H45.4481L49.1147 236.184H49.1356V230.476H51.2189V239.663H49.1356L45.4689 233.976H45.4481Z" fill="#E11D48"/>
<path d="M58.3777 232.33V230.476H64.836V232.33H62.6485V239.663H60.5652V232.33H58.3777Z" fill="#E11D48"/>
<path d="M71.9978 230.476H75.2895C76.1645 230.476 76.878 230.716 77.4353 231.184C77.9874 231.658 78.2686 232.33 78.2686 233.205C78.2686 233.887 78.102 234.455 77.7686 234.913C77.4353 235.372 76.977 235.695 76.3936 235.872L79.5603 239.663H76.8936L74.0811 236.038V239.663H71.9978V230.476ZM74.0811 234.559H74.3311C74.5238 234.559 74.6853 234.559 74.8103 234.559C74.9457 234.549 75.102 234.518 75.2686 234.476C75.4457 234.424 75.5863 234.361 75.6853 234.288C75.7947 234.205 75.8832 234.091 75.9561 233.934C76.0238 233.768 76.0603 233.575 76.0603 233.351C76.0603 233.132 76.0238 232.945 75.9561 232.788C75.8832 232.637 75.7947 232.518 75.6853 232.434C75.5863 232.351 75.4457 232.288 75.2686 232.247C75.102 232.205 74.9457 232.184 74.8103 232.184C74.6853 232.174 74.5238 232.163 74.3311 232.163H74.0811V234.559Z" fill="#E11D48"/>
<path d="M85.9534 235.059C85.9534 233.742 86.4013 232.622 87.3075 231.705C88.2242 230.778 89.3127 230.309 90.5784 230.309C91.87 230.309 92.9586 230.768 93.8492 231.684C94.7502 232.601 95.2034 233.726 95.2034 235.059C95.2034 236.408 94.7555 237.538 93.87 238.455C92.995 239.372 91.8961 239.83 90.5784 239.83C89.245 239.83 88.1409 239.382 87.2659 238.476C86.3909 237.559 85.9534 236.424 85.9534 235.059ZM88.2242 235.059C88.2242 235.549 88.2919 235.992 88.4325 236.393C88.5836 236.783 88.8388 237.117 89.2034 237.393C89.5784 237.674 90.0367 237.809 90.5784 237.809C91.3544 237.809 91.943 237.549 92.3492 237.018C92.7502 236.476 92.9534 235.825 92.9534 235.059C92.9534 234.325 92.745 233.684 92.3284 233.143C91.9221 232.601 91.3388 232.33 90.5784 232.33C89.8284 232.33 89.245 232.601 88.8284 233.143C88.4221 233.684 88.2242 234.325 88.2242 235.059Z" fill="#E11D48"/>
<path d="M104.617 230.476V237.83H107.784V239.663H102.534V230.476H104.617Z" fill="#E11D48"/>
<path d="M120.476 230.476V232.33H117.309V234.143H120.351V235.976H117.309V237.83H120.476V239.663H115.226V230.476H120.476Z" fill="#E11D48"/>
<path d="M142.838 230.476V232.33H139.609V234.143H142.588V235.976H139.609V239.663H137.526V230.476H142.838Z" fill="#E11D48"/>
<path d="M152.323 230.476V239.663H150.24V230.476H152.323Z" fill="#E11D48"/>
<path d="M162.154 233.976V239.663H160.071V230.476H162.154L165.821 236.184H165.842V230.476H167.925V239.663H165.842L162.175 233.976H162.154Z" fill="#E11D48"/>
<path d="M180.334 230.476L184.042 239.663H181.792L181.105 237.83H177.605L176.938 239.663H174.688L178.397 230.476H180.334ZM180.397 235.997L179.376 233.33H179.355L178.334 235.997H180.397Z" fill="#E11D48"/>
<path d="M192.88 233.976V239.663H190.796V230.476H192.88L196.546 236.184H196.567V230.476H198.651V239.663H196.567L192.901 233.976H192.88Z" fill="#E11D48"/>
<path d="M211.268 237.768C211.586 237.768 211.898 237.721 212.205 237.622C212.508 237.528 212.732 237.434 212.872 237.351L213.08 237.205L213.976 238.976C213.945 239.007 213.903 239.038 213.851 239.08C213.794 239.111 213.669 239.179 213.476 239.288C213.294 239.387 213.091 239.471 212.872 239.538C212.664 239.611 212.383 239.669 212.039 239.726C211.69 239.794 211.33 239.83 210.955 239.83C210.107 239.83 209.299 239.622 208.539 239.205C207.773 238.788 207.153 238.216 206.685 237.476C206.211 236.742 205.976 235.95 205.976 235.101C205.976 234.45 206.112 233.83 206.393 233.247C206.669 232.653 207.028 232.143 207.476 231.726C207.935 231.299 208.466 230.955 209.08 230.705C209.69 230.445 210.315 230.309 210.955 230.309C211.549 230.309 212.101 230.387 212.601 230.538C213.101 230.679 213.455 230.82 213.664 230.955L213.976 231.163L213.08 232.934C213.023 232.893 212.94 232.846 212.83 232.788C212.732 232.721 212.523 232.637 212.205 232.538C211.898 232.429 211.586 232.372 211.268 232.372C210.768 232.372 210.315 232.455 209.914 232.622C209.508 232.788 209.19 233.007 208.955 233.268C208.732 233.533 208.56 233.82 208.435 234.122C208.31 234.429 208.247 234.742 208.247 235.059C208.247 235.768 208.508 236.403 209.039 236.955C209.565 237.497 210.31 237.768 211.268 237.768Z" fill="#E11D48"/>
<path d="M226.427 230.476V232.33H223.26V234.143H226.302V235.976H223.26V237.83H226.427V239.663H221.177V230.476H226.427Z" fill="#E11D48"/>
<path d="M236.119 230.476V239.663H234.035V230.476H236.119Z" fill="#E11D48"/>
<path d="M243.867 230.476H247.158C248.033 230.476 248.747 230.716 249.304 231.184C249.856 231.658 250.138 232.33 250.138 233.205C250.138 233.887 249.971 234.455 249.638 234.913C249.304 235.372 248.846 235.695 248.263 235.872L251.429 239.663H248.763L245.95 236.038V239.663H243.867V230.476ZM245.95 234.559H246.2C246.393 234.559 246.554 234.559 246.679 234.559C246.815 234.549 246.971 234.518 247.138 234.476C247.315 234.424 247.455 234.361 247.554 234.288C247.664 234.205 247.752 234.091 247.825 233.934C247.893 233.768 247.929 233.575 247.929 233.351C247.929 233.132 247.893 232.945 247.825 232.788C247.752 232.637 247.664 232.518 247.554 232.434C247.455 232.351 247.315 232.288 247.138 232.247C246.971 232.205 246.815 232.184 246.679 232.184C246.554 232.174 246.393 232.163 246.2 232.163H245.95V234.559Z" fill="#E11D48"/>
<path d="M257.822 235.059C257.822 233.742 258.27 232.622 259.176 231.705C260.093 230.778 261.182 230.309 262.447 230.309C263.739 230.309 264.827 230.768 265.718 231.684C266.619 232.601 267.072 233.726 267.072 235.059C267.072 236.408 266.624 237.538 265.739 238.455C264.864 239.372 263.765 239.83 262.447 239.83C261.114 239.83 260.01 239.382 259.135 238.476C258.26 237.559 257.822 236.424 257.822 235.059ZM260.093 235.059C260.093 235.549 260.161 235.992 260.301 236.393C260.452 236.783 260.708 237.117 261.072 237.393C261.447 237.674 261.906 237.809 262.447 237.809C263.223 237.809 263.812 237.549 264.218 237.018C264.619 236.476 264.822 235.825 264.822 235.059C264.822 234.325 264.614 233.684 264.197 233.143C263.791 232.601 263.208 232.33 262.447 232.33C261.697 232.33 261.114 232.601 260.697 233.143C260.291 233.684 260.093 234.325 260.093 235.059Z" fill="#E11D48"/>
</svg>
